<svg width="111" height="94" viewBox="0 0 111 94" fill="none" xmlns="http://www.w3.org/2000/svg">
<rect width="111" height="94" rx="20" fill="#171717"/>
<path d="M41.5262 70.4284C37.8206 68.3701 34.4634 66.4291 34.0657 66.115C33.4749 65.6486 33.3426 64.2803 33.3426 58.6396C33.3426 51.7352 33.3426 51.7352 28.7242 49.1811C26.184 47.7763 23.3016 46.136 22.3188 45.536C20.5319 44.4452 20.5319 44.4452 20.6609 36.2433C20.79 28.0415 20.79 28.0415 27.8952 24.0928C31.8031 21.921 35.3179 20.1416 35.7058 20.1387C36.0937 20.1355 39.0028 21.553 42.1706 23.2882C45.3383 25.0235 48.2727 26.4432 48.6915 26.4432C49.1102 26.4432 52.071 25.0235 55.271 23.2882C58.4711 21.553 61.4009 20.1357 61.7817 20.1387C62.1626 20.1418 65.6715 21.9209 69.5794 24.0927C76.6847 28.0413 76.6847 28.0413 76.8151 35.1266C76.9456 42.212 76.9456 42.212 78.2056 43.0036C78.8986 43.439 81.7175 45.0186 84.4699 46.5138C89.4742 49.2323 89.4742 49.2323 89.4742 57.7133C89.4742 66.1942 89.4742 66.1942 82.1541 70.2365C76.1779 73.5368 74.656 74.2009 73.8646 73.8541C73.3314 73.6204 70.4696 72.0856 67.5049 70.4433C64.5402 68.8009 61.9133 67.4573 61.6674 67.4573C61.4214 67.4573 58.4805 68.9784 55.1321 70.8375C51.7836 72.6967 48.8684 74.2072 48.6538 74.1943C48.4392 74.1814 45.2318 72.4868 41.5262 70.4284ZM62.0077 62.2911C74.6821 55.3221 74.6821 55.3221 76.8676 56.5272C78.0696 57.19 80.2255 58.3988 81.6584 59.2133C83.0913 60.0279 84.5301 60.6949 84.8558 60.6955C85.2874 60.6964 85.4459 59.5667 85.4406 56.5277C85.4368 54.2347 85.2768 52.1398 85.0853 51.8722C84.8939 51.6046 82.5496 50.2127 79.8757 48.779C77.0464 47.2619 74.6532 46.262 74.1508 46.387C73.676 46.5051 67.9025 49.5703 61.3209 53.1985C54.7392 56.8267 49.0676 59.7953 48.7172 59.7953C48.3669 59.7953 46.0777 58.6798 43.6303 57.3164C41.1828 55.953 38.9326 54.8375 38.6299 54.8375C38.2489 54.8375 38.0794 56.2075 38.0794 59.287C38.0794 63.7364 38.0794 63.7364 42.9347 66.4585C45.6051 67.9556 48.1372 69.1984 48.5617 69.2203C48.9861 69.2422 55.0368 66.124 62.0077 62.2911ZM78.9347 67.2084C80.9538 66.089 82.6058 65.0134 82.6058 64.8183C82.6058 64.6232 80.8021 63.5003 78.5977 62.323C74.5897 60.1824 74.5897 60.1824 71.4993 61.8268C69.7997 62.7312 67.9487 63.8258 67.3861 64.2593C66.3693 65.0427 66.3855 65.0598 70.1029 67.1319C72.1597 68.2784 74.1623 69.2226 74.5531 69.2301C74.9439 69.2376 76.9156 68.3279 78.9347 67.2084ZM53.5926 52.6654C55.2209 51.774 56.5463 50.8332 56.5379 50.5749C56.5295 50.3165 54.9357 49.2432 52.9961 48.1896C51.0564 47.1361 49.138 46.2742 48.7328 46.2742C48.3277 46.2742 46.4067 47.1361 44.4639 48.1896C42.5211 49.2432 40.9293 50.3263 40.9266 50.5966C40.9237 50.8669 42.661 52.0228 44.787 53.1653C47.9967 54.8901 48.8204 55.1614 49.6423 54.7644C50.1867 54.5014 51.9643 53.5569 53.5926 52.6654ZM43.0783 44.1963C46.9723 42.062 52.7674 38.895 55.9563 37.1586C61.7541 34.0015 61.7541 34.0015 66.7956 36.7997C70.7105 38.9727 71.9273 39.4627 72.2405 38.9924C72.4624 38.6593 72.6442 36.9671 72.6447 35.2319C72.6451 33.4967 72.5293 31.6713 72.3874 31.1756C72.2283 30.6197 70.1508 29.1861 66.9672 27.4355C61.9927 24.7 61.757 24.6206 60.4817 25.2516C59.7539 25.6117 53.968 28.7652 47.6243 32.2593C41.2805 35.7534 35.9505 38.6122 35.7798 38.6122C35.6092 38.6122 33.2669 37.3943 30.5749 35.9059C27.8828 34.4174 25.4858 33.3139 25.2482 33.4536C25.0107 33.5933 24.8195 35.4703 24.8235 37.6247C24.8273 39.7791 24.9874 41.7754 25.1788 42.061C25.3702 42.3467 27.7639 43.8171 30.4982 45.3287C33.2324 46.8402 35.5885 48.077 35.7339 48.077C35.8792 48.077 39.1842 46.3307 43.0783 44.1963ZM64.8772 46.4644C66.544 45.5775 68.3611 44.5025 68.9151 44.0757C69.9106 43.3087 69.8773 43.2746 66.0908 41.1812C63.9833 40.0161 61.9878 39.0665 61.6561 39.071C61.3245 39.0755 59.3883 40.0022 57.3535 41.1303C55.3187 42.2584 53.722 43.376 53.8054 43.6139C53.8887 43.8517 55.5535 44.9341 57.505 46.0191C59.4565 47.1042 61.2316 48.0111 61.4498 48.0345C61.668 48.0578 63.2103 47.3513 64.8772 46.4644ZM40.1025 31.6153C42.1161 30.4937 43.763 29.4289 43.7621 29.2491C43.7612 29.0692 41.9616 27.9422 39.7629 26.7447C35.7652 24.5674 35.7652 24.5674 32.6661 26.2165C30.9615 27.1234 29.1089 28.2184 28.549 28.6497C27.5389 29.428 27.5594 29.4499 31.2658 31.5373C33.3199 32.6942 35.3247 33.6438 35.7209 33.6476C36.1172 33.6512 38.0889 32.7368 40.1025 31.6153Z" fill="white"/>
</svg>
